<?xml version="1.0" encoding="UTF-8" standalone="no"?>
<!-- Created with Inkscape (http://www.inkscape.org/) -->

<svg
   xmlns:dc="http://purl.org/dc/elements/1.1/"
   xmlns:cc="http://creativecommons.org/ns#"
   xmlns:rdf="http://www.w3.org/1999/02/22-rdf-syntax-ns#"
   xmlns:svg="http://www.w3.org/2000/svg"
   xmlns="http://www.w3.org/2000/svg"
   xmlns:sodipodi="http://sodipodi.sourceforge.net/DTD/sodipodi-0.dtd"
   xmlns:inkscape="http://www.inkscape.org/namespaces/inkscape"
   width="2.2in"
   height="2.2in"
   viewBox="0 0 55.880002 55.880003"
   version="1.1"
   id="svg8"
   inkscape:version="0.92.3 (2405546, 2018-03-11)"
   sodipodi:docname="computronium.svg"
   inkscape:export-filename="/home/munizao/projects/jams/shipping_game/icons/png/computronium.png"
   inkscape:export-xdpi="29.09"
   inkscape:export-ydpi="29.09">
  <defs
     id="defs2" />
  <sodipodi:namedview
     id="base"
     pagecolor="#ffffff"
     bordercolor="#666666"
     borderopacity="1.0"
     inkscape:pageopacity="0.0"
     inkscape:pageshadow="2"
     inkscape:zoom="1.979899"
     inkscape:cx="-192.25969"
     inkscape:cy="100.12255"
     inkscape:document-units="mm"
     inkscape:current-layer="layer1"
     showgrid="false"
     units="in"
     inkscape:window-width="1920"
     inkscape:window-height="969"
     inkscape:window-x="0"
     inkscape:window-y="40"
     inkscape:window-maximized="1" />
  <metadata
     id="metadata5">
    <rdf:RDF>
      <cc:Work
         rdf:about="">
        <dc:format>image/svg+xml</dc:format>
        <dc:type
           rdf:resource="http://purl.org/dc/dcmitype/StillImage" />
        <dc:title />
      </cc:Work>
    </rdf:RDF>
  </metadata>
  <g
     inkscape:label="Layer 1"
     inkscape:groupmode="layer"
     id="layer1"
     transform="translate(0,-241.11998)">
    <g
       transform="translate(-99.059997,218.25998)"
       id="g1971">
      <rect
         y="25.4"
         x="101.6"
         height="50.799999"
         width="50.799999"
         id="rect46851"
         style="color:#000000;overflow:visible;opacity:1;vector-effect:none;fill:#fdfdfd;fill-opacity:1;fill-rule:evenodd;stroke:#000000;stroke-width:2;stroke-linecap:round;stroke-linejoin:round;stroke-miterlimit:4;stroke-dasharray:none;stroke-dashoffset:0;stroke-opacity:1" />
      <g
         id="g1955">
        <path
           inkscape:connector-curvature="0"
           id="path17827"
           style="color:#000000;overflow:visible;fill:#000000;fill-opacity:1;fill-rule:evenodd;stroke:#000000;stroke-width:0.114285;stroke-linecap:round;stroke-linejoin:round;stroke-opacity:1"
           d="m 114.808,62.992082 a 4.0640283,4.0639063 0 0 0 -4.06404,4.063917 4.0640283,4.0639063 0 0 0 4.06404,4.063919 4.0640283,4.0639063 0 0 0 4.06404,-4.063919 4.0640283,4.0639063 0 0 0 -4.06404,-4.063917 z m 0,1.741662 a 2.3223021,2.3222323 0 0 1 2.32226,2.322255 2.3223021,2.3222323 0 0 1 -2.32226,2.322197 2.3223021,2.3222323 0 0 1 -2.32233,-2.322197 2.3223021,2.3222323 0 0 1 2.32233,-2.322255 z" />
        <path
           inkscape:connector-curvature="0"
           id="path17827-3"
           style="color:#000000;overflow:visible;fill:#000000;fill-opacity:1;fill-rule:evenodd;stroke:#000000;stroke-width:0.114285;stroke-linecap:round;stroke-linejoin:round;stroke-opacity:1"
           d="m 127.00004,62.992162 a 4.0640283,4.0639063 0 0 0 -4.06404,4.063918 4.0640283,4.0639063 0 0 0 4.06404,4.063919 4.0640283,4.0639063 0 0 0 4.06404,-4.063919 4.0640283,4.0639063 0 0 0 -4.06404,-4.063918 z m 0,1.741663 a 2.3223021,2.3222323 0 0 1 2.32226,2.322255 2.3223021,2.3222323 0 0 1 -2.32226,2.322197 2.3223021,2.3222323 0 0 1 -2.32233,-2.322197 2.3223021,2.3222323 0 0 1 2.32233,-2.322255 z" />
        <path
           inkscape:connector-curvature="0"
           id="path17827-9"
           style="color:#000000;overflow:visible;fill:#000000;fill-opacity:1;fill-rule:evenodd;stroke:#000000;stroke-width:0.114285;stroke-linecap:round;stroke-linejoin:round;stroke-opacity:1"
           d="m 139.192,62.992082 a 4.0640283,4.0639063 0 0 0 -4.06404,4.063917 4.0640283,4.0639063 0 0 0 4.06404,4.063919 4.0640283,4.0639063 0 0 0 4.06404,-4.063919 4.0640283,4.0639063 0 0 0 -4.06404,-4.063917 z m 0,1.741662 a 2.3223021,2.3222323 0 0 1 2.32226,2.322255 2.3223021,2.3222323 0 0 1 -2.32226,2.322197 2.3223021,2.3222323 0 0 1 -2.32233,-2.322197 2.3223021,2.3222323 0 0 1 2.32233,-2.322255 z" />
        <path
           inkscape:connector-curvature="0"
           id="path17827-0"
           style="color:#000000;overflow:visible;fill:#000000;fill-opacity:1;fill-rule:evenodd;stroke:#000000;stroke-width:0.114285;stroke-linecap:round;stroke-linejoin:round;stroke-opacity:1"
           d="M 127,42.672082 A 4.0640283,4.0639063 0 0 0 122.93596,46.735999 4.0640283,4.0639063 0 0 0 127,50.799918 4.0640283,4.0639063 0 0 0 131.06404,46.735999 4.0640283,4.0639063 0 0 0 127,42.672082 Z m 0,1.741662 a 2.3223021,2.3222323 0 0 1 2.32226,2.322255 A 2.3223021,2.3222323 0 0 1 127,49.058196 2.3223021,2.3222323 0 0 1 124.67767,46.735999 2.3223021,2.3222323 0 0 1 127,44.413744 Z" />
        <path
           inkscape:connector-curvature="0"
           id="path17827-8"
           style="color:#000000;overflow:visible;fill:#000000;fill-opacity:1;fill-rule:evenodd;stroke:#000000;stroke-width:0.114285;stroke-linecap:round;stroke-linejoin:round;stroke-opacity:1"
           d="m 139.192,42.672082 a 4.0640283,4.0639063 0 0 0 -4.06404,4.063917 4.0640283,4.0639063 0 0 0 4.06404,4.063919 4.0640283,4.0639063 0 0 0 4.06404,-4.063919 4.0640283,4.0639063 0 0 0 -4.06404,-4.063917 z m 0,1.741662 a 2.3223021,2.3222323 0 0 1 2.32226,2.322255 2.3223021,2.3222323 0 0 1 -2.32226,2.322197 2.3223021,2.3222323 0 0 1 -2.32233,-2.322197 2.3223021,2.3222323 0 0 1 2.32233,-2.322255 z" />
        <path
           inkscape:connector-curvature="0"
           style="color:#000000;overflow:visible;fill:#000000;fill-opacity:1;fill-rule:evenodd;stroke:#000000;stroke-width:2;stroke-linecap:round;stroke-linejoin:round;stroke-dasharray:none;stroke-opacity:1"
           d="m 114.80804,62.991998 v -8.128"
           id="path17893" />
        <path
           inkscape:connector-curvature="0"
           style="color:#000000;overflow:visible;fill:#000000;fill-opacity:1;fill-rule:evenodd;stroke:#000000;stroke-width:1.75999999;stroke-linecap:round;stroke-linejoin:round;stroke-dasharray:none;stroke-opacity:1"
           d="m 131.06404,46.735998 h 4.064"
           id="path18258" />
        <path
           inkscape:connector-curvature="0"
           style="color:#000000;overflow:visible;fill:#000000;fill-opacity:1;fill-rule:evenodd;stroke:#000000;stroke-width:2;stroke-linecap:round;stroke-linejoin:round;stroke-dasharray:none;stroke-opacity:1"
           d="m 127.00004,50.799998 v 12.192"
           id="path18986" />
        <path
           inkscape:connector-curvature="0"
           style="color:#000000;overflow:visible;fill:#000000;fill-opacity:1;fill-rule:evenodd;stroke:#000000;stroke-width:2;stroke-linecap:round;stroke-linejoin:round;stroke-dasharray:none;stroke-opacity:1"
           d="m 139.19204,50.799998 v 12.192"
           id="path19714" />
        <path
           inkscape:connector-curvature="0"
           style="color:#000000;overflow:visible;fill:#000000;fill-opacity:1;fill-rule:evenodd;stroke:#000000;stroke-width:2;stroke-linecap:round;stroke-linejoin:round;stroke-dasharray:none;stroke-opacity:1"
           d="M 127.00004,42.671998 V 30.479999"
           id="path20442" />
        <path
           inkscape:connector-curvature="0"
           style="color:#000000;overflow:visible;fill:#000000;fill-opacity:1;fill-rule:evenodd;stroke:#000000;stroke-width:2;stroke-linecap:round;stroke-linejoin:round;stroke-dasharray:none;stroke-opacity:1"
           d="M 139.19204,42.671998 V 30.479999"
           id="path21170" />
        <path
           style="color:#000000;overflow:visible;fill:none;fill-opacity:1;fill-rule:evenodd;stroke:#000000;stroke-width:2;stroke-linecap:round;stroke-linejoin:round;stroke-dasharray:none;stroke-opacity:1"
           id="path21535"
           sodipodi:type="arc"
           sodipodi:cx="-122.93603"
           sodipodi:cy="-54.863998"
           sodipodi:rx="8.1280003"
           sodipodi:ry="8.1280003"
           sodipodi:start="0"
           sodipodi:end="1.5707963"
           sodipodi:arc-type="arc"
           d="m -114.80803,-54.863998 a 8.1280003,8.1280003 0 0 1 -8.128,8.128"
           sodipodi:open="true"
           transform="scale(-1)" />
      </g>
    </g>
  </g>
</svg>
