<?xml version="1.0" encoding="UTF-8" standalone="no"?>
<!-- Created with Inkscape (http://www.inkscape.org/) -->

<svg
   xmlns:dc="http://purl.org/dc/elements/1.1/"
   xmlns:cc="http://creativecommons.org/ns#"
   xmlns:rdf="http://www.w3.org/1999/02/22-rdf-syntax-ns#"
   xmlns:svg="http://www.w3.org/2000/svg"
   xmlns="http://www.w3.org/2000/svg"
   xmlns:sodipodi="http://sodipodi.sourceforge.net/DTD/sodipodi-0.dtd"
   xmlns:inkscape="http://www.inkscape.org/namespaces/inkscape"
   width="2.2in"
   height="2.2in"
   viewBox="0 0 55.880002 55.880003"
   version="1.1"
   id="svg8"
   inkscape:version="0.92.3 (2405546, 2018-03-11)"
   sodipodi:docname="munitions.svg">
  <defs
     id="defs2">
    <inkscape:path-effect
       effect="spiro"
       id="path-effect54081"
       is_visible="true"
       lpeversion="1" />
    <inkscape:path-effect
       effect="spiro"
       id="path-effect55183"
       is_visible="true"
       lpeversion="1" />
    <inkscape:path-effect
       effect="spiro"
       id="path-effect63394"
       is_visible="true"
       lpeversion="1" />
    <inkscape:path-effect
       effect="spiro"
       id="path-effect63394-89"
       is_visible="true"
       lpeversion="1" />
    <inkscape:path-effect
       effect="spiro"
       id="path-effect63394-6"
       is_visible="true"
       lpeversion="1" />
    <inkscape:path-effect
       effect="spiro"
       id="path-effect63394-89-8"
       is_visible="true"
       lpeversion="1" />
  </defs>
  <sodipodi:namedview
     id="base"
     pagecolor="#ffffff"
     bordercolor="#666666"
     borderopacity="1.0"
     inkscape:pageopacity="0.0"
     inkscape:pageshadow="2"
     inkscape:zoom="1.979899"
     inkscape:cx="117.85714"
     inkscape:cy="102.14286"
     inkscape:document-units="mm"
     inkscape:current-layer="layer1"
     showgrid="false"
     units="in"
     inkscape:window-width="1920"
     inkscape:window-height="969"
     inkscape:window-x="0"
     inkscape:window-y="40"
     inkscape:window-maximized="1" />
  <metadata
     id="metadata5">
    <rdf:RDF>
      <cc:Work
         rdf:about="">
        <dc:format>image/svg+xml</dc:format>
        <dc:type
           rdf:resource="http://purl.org/dc/dcmitype/StillImage" />
        <dc:title></dc:title>
      </cc:Work>
    </rdf:RDF>
  </metadata>
  <g
     inkscape:label="Layer 1"
     inkscape:groupmode="layer"
     id="layer1"
     transform="translate(0,-241.11998)">
    <g
       id="g51403"
       transform="matrix(0.53033009,0.53033009,-0.53033009,0.53033009,65.657076,64.310138)">
      <g
         id="g39230"
         transform="matrix(-0.89801501,0,0,0.89801501,370.09126,135.57819)">
        <path
           inkscape:connector-curvature="0"
           id="path30789"
           style="color:#000000;overflow:visible;fill:#000000;fill-opacity:1;fill-rule:evenodd;stroke:#000000;stroke-width:0.41997001;stroke-linecap:round;stroke-linejoin:round;stroke-dasharray:none;stroke-opacity:1"
           d="m 236.75691,95.641737 c -0.16573,0 -0.33145,0.03141 -0.48485,0.09421 -0.21535,0.08816 -0.40372,0.234279 -0.5621,0.404753 -0.15838,0.170474 -0.28832,0.365325 -0.40771,0.565056 -0.5286,0.884332 -0.86199,1.884602 -0.96971,2.909231 v 7.757973 l -1.93952,3.87904 h 8.72778 l -1.93951,-3.87904 v -7.757973 c -0.10772,-1.024629 -0.44111,-2.024899 -0.96971,-2.909231 -0.11939,-0.199731 -0.24934,-0.394582 -0.40772,-0.565056 -0.15837,-0.170474 -0.34675,-0.316595 -0.56209,-0.404753 -0.15341,-0.0628 -0.31912,-0.09421 -0.48486,-0.09421 z" />
        <path
           inkscape:connector-curvature="0"
           id="path30789-1"
           style="color:#000000;overflow:visible;fill:#000000;fill-opacity:1;fill-rule:evenodd;stroke:#000000;stroke-width:0.41997001;stroke-linecap:round;stroke-linejoin:round;stroke-dasharray:none;stroke-opacity:1"
           d="m 251.99691,111.30508 c -0.16573,0 -0.33145,0.0314 -0.48485,0.0942 -0.21535,0.0882 -0.40372,0.23428 -0.5621,0.40475 -0.15838,0.17047 -0.28832,0.36532 -0.40771,0.56506 -0.5286,0.88433 -0.86199,1.8846 -0.96971,2.90923 v 7.75797 l -1.93952,3.87904 h 8.72778 l -1.93951,-3.87904 v -7.75797 c -0.10772,-1.02463 -0.44111,-2.0249 -0.96971,-2.90923 -0.11939,-0.19974 -0.24934,-0.39459 -0.40772,-0.56506 -0.15837,-0.17047 -0.34675,-0.3166 -0.56209,-0.40475 -0.15341,-0.0628 -0.31912,-0.0942 -0.48486,-0.0942 z" />
        <path
           inkscape:connector-curvature="0"
           id="path30789-0"
           style="color:#000000;overflow:visible;fill:#000000;fill-opacity:1;fill-rule:evenodd;stroke:#000000;stroke-width:0.41997001;stroke-linecap:round;stroke-linejoin:round;stroke-dasharray:none;stroke-opacity:1"
           d="m 221.51691,111.30508 c -0.16573,0 -0.33145,0.0314 -0.48485,0.0942 -0.21535,0.0882 -0.40372,0.23428 -0.5621,0.40475 -0.15838,0.17047 -0.28832,0.36532 -0.40771,0.56506 -0.5286,0.88433 -0.86199,1.8846 -0.96971,2.90923 v 7.75797 l -1.93952,3.87904 h 8.72778 l -1.93951,-3.87904 v -7.75797 c -0.10772,-1.02463 -0.44111,-2.0249 -0.96971,-2.90923 -0.11939,-0.19974 -0.24934,-0.39459 -0.40772,-0.56506 -0.15837,-0.17047 -0.34675,-0.3166 -0.56209,-0.40475 -0.15341,-0.0628 -0.31912,-0.0942 -0.48486,-0.0942 z" />
        <path
           inkscape:connector-curvature="0"
           id="path30789-3"
           style="color:#000000;overflow:visible;fill:#000000;fill-opacity:1;fill-rule:evenodd;stroke:#000000;stroke-width:0.41997001;stroke-linecap:round;stroke-linejoin:round;stroke-dasharray:none;stroke-opacity:1"
           d="m 221.51691,79.978409 c -0.16573,0 -0.33145,0.03141 -0.48485,0.09421 -0.21535,0.08816 -0.40372,0.234279 -0.5621,0.404753 -0.15838,0.170473 -0.28832,0.365324 -0.40771,0.565055 -0.5286,0.884332 -0.86199,1.884602 -0.96971,2.909232 v 7.757973 l -1.93952,3.87904 h 8.72778 l -1.93951,-3.87904 V 83.95166 c -0.10772,-1.024629 -0.44111,-2.024899 -0.96971,-2.909231 -0.11939,-0.199731 -0.24934,-0.394582 -0.40772,-0.565056 -0.15837,-0.170474 -0.34675,-0.316595 -0.56209,-0.404753 -0.15341,-0.0628 -0.31912,-0.09421 -0.48486,-0.09421 z" />
        <path
           inkscape:connector-curvature="0"
           id="path30789-04"
           style="color:#000000;overflow:visible;fill:#000000;fill-opacity:1;fill-rule:evenodd;stroke:#000000;stroke-width:0.41997001;stroke-linecap:round;stroke-linejoin:round;stroke-dasharray:none;stroke-opacity:1"
           d="m 251.99691,79.978409 c -0.16573,0 -0.33145,0.03141 -0.48485,0.09421 -0.21535,0.08816 -0.40372,0.234279 -0.5621,0.404753 -0.15838,0.170473 -0.28832,0.365324 -0.40771,0.565055 -0.5286,0.884332 -0.86199,1.884602 -0.96971,2.909232 v 7.757973 l -1.93952,3.87904 h 8.72778 l -1.93951,-3.87904 V 83.95166 c -0.10772,-1.024629 -0.44111,-2.024899 -0.96971,-2.909231 -0.11939,-0.199731 -0.24934,-0.394582 -0.40772,-0.565056 -0.15837,-0.170474 -0.34675,-0.316595 -0.56209,-0.404753 -0.15341,-0.0628 -0.31912,-0.09421 -0.48486,-0.09421 z" />
      </g>
      <rect
         style="color:#000000;overflow:visible;opacity:1;vector-effect:none;fill:none;fill-opacity:1;fill-rule:evenodd;stroke:#000000;stroke-width:1.73333001;stroke-linecap:round;stroke-linejoin:round;stroke-miterlimit:4;stroke-dasharray:none;stroke-dashoffset:0;stroke-opacity:1"
         id="rect46851-6-4"
         width="50.799999"
         height="50.799999"
         x="-254"
         y="132.08"
         transform="rotate(-90)" />
    </g>
  </g>
</svg>
